# Blender v2.93.5 OBJ File: ''
# www.blender.org
mtllib SphereSimple.mtl
o Cube_Cube.001
v -0.426219 -0.184848 0.184848
v -0.459982 -0.000000 0.196000
v -0.500000 0.000000 0.000000
v -0.459982 -0.196000 -0.000000
v -0.426219 0.184848 0.184848
v -0.459982 0.196000 0.000000
v -0.459982 0.000000 -0.196000
v -0.426219 -0.184848 -0.184848
v -0.426219 0.184848 -0.184848
v -0.288675 -0.288675 0.288675
v -0.332001 -0.171902 0.332001
v -0.332001 -0.332001 0.171902
v -0.353553 -0.000000 0.353553
v -0.332001 0.171902 0.332001
v -0.288675 0.288675 0.288675
v -0.332001 0.332001 0.171902
v -0.353553 0.353553 0.000000
v -0.332001 0.332001 -0.171902
v -0.288675 0.288675 -0.288675
v -0.332001 0.171902 -0.332001
v -0.353553 0.000000 -0.353553
v -0.332001 -0.171902 -0.332001
v -0.332001 -0.332001 -0.171902
v -0.288675 -0.288675 -0.288675
v -0.353553 -0.353553 -0.000000
v -0.184848 -0.184848 -0.426219
v -0.196000 0.000000 -0.459982
v 0.000000 0.000000 -0.500000
v 0.000000 -0.196000 -0.459982
v -0.184848 0.184848 -0.426219
v 0.000000 0.196000 -0.459982
v 0.196000 0.000000 -0.459982
v 0.184848 -0.184848 -0.426219
v 0.184848 0.184848 -0.426219
v -0.171902 -0.332001 -0.332001
v -0.171902 0.332001 -0.332001
v 0.000000 0.353553 -0.353553
v 0.171902 0.332001 -0.332001
v 0.288675 0.288675 -0.288675
v 0.332001 0.171902 -0.332001
v 0.353553 0.000000 -0.353553
v 0.332001 -0.171902 -0.332001
v 0.171902 -0.332001 -0.332001
v 0.288675 -0.288675 -0.288675
v 0.000000 -0.353553 -0.353553
v 0.426219 -0.184848 -0.184848
v 0.459982 0.000000 -0.196000
v 0.500000 0.000000 0.000000
v 0.459982 -0.196000 -0.000000
v 0.426219 0.184848 -0.184848
v 0.459982 0.196000 0.000000
v 0.459982 -0.000000 0.196000
v 0.426219 -0.184848 0.184848
v 0.426219 0.184848 0.184848
v 0.332001 -0.332001 -0.171902
v 0.332001 0.332001 -0.171902
v 0.353553 0.353553 0.000000
v 0.332001 0.332001 0.171902
v 0.288675 0.288675 0.288675
v 0.332001 0.171902 0.332001
v 0.353553 -0.000000 0.353553
v 0.332001 -0.171902 0.332001
v 0.332001 -0.332001 0.171902
v 0.288675 -0.288675 0.288675
v 0.353553 -0.353553 -0.000000
v 0.184848 -0.184848 0.426219
v 0.196000 -0.000000 0.459982
v 0.000000 -0.000000 0.500000
v 0.000000 -0.196000 0.459982
v 0.184848 0.184848 0.426219
v 0.000000 0.196000 0.459982
v -0.196000 -0.000000 0.459982
v -0.184848 -0.184848 0.426219
v -0.184848 0.184848 0.426219
v 0.171902 -0.332001 0.332001
v 0.171902 0.332001 0.332001
v 0.000000 0.353553 0.353553
v -0.171902 0.332001 0.332001
v -0.171902 -0.332001 0.332001
v 0.000000 -0.353553 0.353553
v -0.184848 -0.426219 -0.184848
v 0.000000 -0.459982 -0.196000
v 0.000000 -0.500000 -0.000000
v -0.196000 -0.459982 -0.000000
v 0.184848 -0.426219 -0.184848
v 0.196000 -0.459982 -0.000000
v 0.000000 -0.459982 0.196000
v -0.184848 -0.426219 0.184848
v 0.184848 -0.426219 0.184848
v 0.184848 0.426219 -0.184848
v 0.000000 0.459982 -0.196000
v 0.000000 0.500000 0.000000
v 0.196000 0.459982 0.000000
v -0.184848 0.426219 -0.184848
v -0.196000 0.459982 0.000000
v 0.000000 0.459982 0.196000
v 0.184848 0.426219 0.184848
v -0.184848 0.426219 0.184848
vt 0.437500 0.062500
vt 0.500000 0.062500
vt 0.500000 0.125000
vt 0.437500 0.125000
vt 0.562500 0.062500
vt 0.562500 0.125000
vt 0.500000 0.187500
vt 0.437500 0.187500
vt 0.562500 0.187500
vt 0.375000 0.000000
vt 0.437500 0.000000
vt 0.375000 0.062500
vt 0.500000 0.000000
vt 0.562500 0.000000
vt 0.625000 0.000000
vt 0.625000 0.062500
vt 0.625000 0.125000
vt 0.625000 0.187500
vt 0.625000 0.250000
vt 0.562500 0.250000
vt 0.500000 0.250000
vt 0.437500 0.250000
vt 0.375000 0.187500
vt 0.375000 0.250000
vt 0.375000 0.125000
vt 0.437500 0.312500
vt 0.500000 0.312500
vt 0.500000 0.375000
vt 0.437500 0.375000
vt 0.562500 0.312500
vt 0.562500 0.375000
vt 0.500000 0.437500
vt 0.437500 0.437500
vt 0.562500 0.437500
vt 0.375000 0.312500
vt 0.625000 0.312500
vt 0.625000 0.375000
vt 0.625000 0.437500
vt 0.625000 0.500000
vt 0.562500 0.500000
vt 0.500000 0.500000
vt 0.437500 0.500000
vt 0.375000 0.437500
vt 0.375000 0.500000
vt 0.375000 0.375000
vt 0.437500 0.562500
vt 0.500000 0.562500
vt 0.500000 0.625000
vt 0.437500 0.625000
vt 0.562500 0.562500
vt 0.562500 0.625000
vt 0.500000 0.687500
vt 0.437500 0.687500
vt 0.562500 0.687500
vt 0.375000 0.562500
vt 0.625000 0.562500
vt 0.625000 0.625000
vt 0.625000 0.687500
vt 0.625000 0.750000
vt 0.562500 0.750000
vt 0.500000 0.750000
vt 0.437500 0.750000
vt 0.375000 0.687500
vt 0.375000 0.750000
vt 0.375000 0.625000
vt 0.437500 0.812500
vt 0.500000 0.812500
vt 0.500000 0.875000
vt 0.437500 0.875000
vt 0.562500 0.812500
vt 0.562500 0.875000
vt 0.500000 0.937500
vt 0.437500 0.937500
vt 0.562500 0.937500
vt 0.375000 0.812500
vt 0.625000 0.812500
vt 0.625000 0.875000
vt 0.625000 0.937500
vt 0.625000 1.000000
vt 0.562500 1.000000
vt 0.500000 1.000000
vt 0.437500 1.000000
vt 0.375000 0.937500
vt 0.375000 1.000000
vt 0.375000 0.875000
vt 0.187500 0.562500
vt 0.250000 0.562500
vt 0.250000 0.625000
vt 0.187500 0.625000
vt 0.312500 0.562500
vt 0.312500 0.625000
vt 0.250000 0.687500
vt 0.187500 0.687500
vt 0.312500 0.687500
vt 0.125000 0.500000
vt 0.187500 0.500000
vt 0.125000 0.562500
vt 0.250000 0.500000
vt 0.312500 0.500000
vt 0.312500 0.750000
vt 0.250000 0.750000
vt 0.187500 0.750000
vt 0.125000 0.687500
vt 0.125000 0.750000
vt 0.125000 0.625000
vt 0.687500 0.562500
vt 0.750000 0.562500
vt 0.750000 0.625000
vt 0.687500 0.625000
vt 0.812500 0.562500
vt 0.812500 0.625000
vt 0.750000 0.687500
vt 0.687500 0.687500
vt 0.812500 0.687500
vt 0.687500 0.500000
vt 0.750000 0.500000
vt 0.812500 0.500000
vt 0.875000 0.500000
vt 0.875000 0.562500
vt 0.875000 0.625000
vt 0.875000 0.687500
vt 0.875000 0.750000
vt 0.812500 0.750000
vt 0.750000 0.750000
vt 0.687500 0.750000
vn -0.8646 -0.3552 0.3552
vn -0.9244 -0.0000 0.3813
vn -1.0000 0.0000 0.0000
vn -0.9244 -0.3813 -0.0000
vn -0.8646 0.3552 0.3552
vn -0.9244 0.3813 0.0000
vn -0.9244 0.0000 -0.3813
vn -0.8646 -0.3552 -0.3552
vn -0.8646 0.3552 -0.3552
vn -0.5774 -0.5774 0.5774
vn -0.6684 -0.3265 0.6684
vn -0.6684 -0.6684 0.3265
vn -0.7071 -0.0000 0.7071
vn -0.6684 0.3265 0.6684
vn -0.5774 0.5774 0.5774
vn -0.6684 0.6684 0.3265
vn -0.7071 0.7071 0.0000
vn -0.6684 0.6684 -0.3265
vn -0.5774 0.5774 -0.5774
vn -0.6684 0.3265 -0.6684
vn -0.7071 0.0000 -0.7071
vn -0.6684 -0.3265 -0.6684
vn -0.6684 -0.6684 -0.3265
vn -0.5774 -0.5774 -0.5774
vn -0.7071 -0.7071 -0.0000
vn -0.3552 -0.3552 -0.8646
vn -0.3813 0.0000 -0.9244
vn -0.0000 0.0000 -1.0000
vn -0.0000 -0.3813 -0.9244
vn -0.3552 0.3552 -0.8646
vn 0.0000 0.3813 -0.9244
vn 0.3813 0.0000 -0.9244
vn 0.3552 -0.3552 -0.8646
vn 0.3552 0.3552 -0.8646
vn -0.3265 -0.6684 -0.6684
vn -0.3265 0.6684 -0.6684
vn -0.0000 0.7071 -0.7071
vn 0.3265 0.6684 -0.6684
vn 0.5774 0.5774 -0.5774
vn 0.6684 0.3265 -0.6684
vn 0.7071 0.0000 -0.7071
vn 0.6684 -0.3265 -0.6684
vn 0.3265 -0.6684 -0.6684
vn 0.5774 -0.5774 -0.5774
vn -0.0000 -0.7071 -0.7071
vn 0.8646 -0.3552 -0.3552
vn 0.9244 0.0000 -0.3813
vn 1.0000 -0.0000 -0.0000
vn 0.9244 -0.3813 -0.0000
vn 0.8646 0.3552 -0.3552
vn 0.9244 0.3813 0.0000
vn 0.9244 -0.0000 0.3813
vn 0.8646 -0.3552 0.3552
vn 0.8646 0.3552 0.3552
vn 0.6684 -0.6684 -0.3265
vn 0.6684 0.6684 -0.3265
vn 0.7071 0.7071 0.0000
vn 0.6684 0.6684 0.3265
vn 0.5774 0.5774 0.5774
vn 0.6684 0.3265 0.6684
vn 0.7071 -0.0000 0.7071
vn 0.6684 -0.3265 0.6684
vn 0.6684 -0.6684 0.3265
vn 0.5774 -0.5774 0.5774
vn 0.7071 -0.7071 -0.0000
vn 0.3552 -0.3552 0.8646
vn 0.3813 -0.0000 0.9244
vn 0.0000 -0.0000 1.0000
vn 0.0000 -0.3813 0.9244
vn 0.3552 0.3552 0.8646
vn 0.0000 0.3813 0.9244
vn -0.3813 -0.0000 0.9244
vn -0.3552 -0.3552 0.8646
vn -0.3552 0.3552 0.8646
vn 0.3265 -0.6684 0.6684
vn 0.3265 0.6684 0.6684
vn 0.0000 0.7071 0.7071
vn -0.3265 0.6684 0.6684
vn -0.3265 -0.6684 0.6684
vn 0.0000 -0.7071 0.7071
vn -0.3552 -0.8646 -0.3552
vn 0.0000 -0.9244 -0.3813
vn 0.0000 -1.0000 -0.0000
vn -0.3813 -0.9244 -0.0000
vn 0.3552 -0.8646 -0.3552
vn 0.3813 -0.9244 -0.0000
vn 0.0000 -0.9244 0.3813
vn -0.3552 -0.8646 0.3552
vn 0.3552 -0.8646 0.3552
vn 0.3552 0.8646 -0.3552
vn -0.0000 0.9244 -0.3813
vn 0.0000 1.0000 0.0000
vn 0.3813 0.9244 0.0000
vn -0.3552 0.8646 -0.3552
vn -0.3813 0.9244 0.0000
vn 0.0000 0.9244 0.3813
vn 0.3552 0.8646 0.3552
vn -0.3552 0.8646 0.3552
usemtl None
s 1
f 1/1/1 2/2/2 3/3/3 4/4/4
f 2/2/2 5/5/5 6/6/6 3/3/3
f 4/4/4 3/3/3 7/7/7 8/8/8
f 3/3/3 6/6/6 9/9/9 7/7/7
f 10/10/10 11/11/11 1/1/1 12/12/12
f 11/11/11 13/13/13 2/2/2 1/1/1
f 13/13/13 14/14/14 5/5/5 2/2/2
f 14/14/14 15/15/15 16/16/16 5/5/5
f 5/5/5 16/16/16 17/17/17 6/6/6
f 6/6/6 17/17/17 18/18/18 9/9/9
f 9/9/9 18/18/18 19/19/19 20/20/20
f 7/7/7 9/9/9 20/20/20 21/21/21
f 8/8/8 7/7/7 21/21/21 22/22/22
f 23/23/23 8/8/8 22/22/22 24/24/24
f 25/25/25 4/4/4 8/8/8 23/23/23
f 12/12/12 1/1/1 4/4/4 25/25/25
f 26/26/26 27/27/27 28/28/28 29/29/29
f 27/27/27 30/30/30 31/31/31 28/28/28
f 29/29/29 28/28/28 32/32/32 33/33/33
f 28/28/28 31/31/31 34/34/34 32/32/32
f 24/24/24 22/22/22 26/26/26 35/35/35
f 22/22/22 21/21/21 27/27/27 26/26/26
f 21/21/21 20/20/20 30/30/30 27/27/27
f 20/20/20 19/19/19 36/36/36 30/30/30
f 30/30/30 36/36/36 37/37/37 31/31/31
f 31/31/31 37/37/37 38/38/38 34/34/34
f 34/34/34 38/38/38 39/39/39 40/40/40
f 32/32/32 34/34/34 40/40/40 41/41/41
f 33/33/33 32/32/32 41/41/41 42/42/42
f 43/43/43 33/33/33 42/42/42 44/44/44
f 45/45/45 29/29/29 33/33/33 43/43/43
f 35/35/35 26/26/26 29/29/29 45/45/45
f 46/46/46 47/47/47 48/48/48 49/49/49
f 47/47/47 50/50/50 51/51/51 48/48/48
f 49/49/49 48/48/48 52/52/52 53/53/53
f 48/48/48 51/51/51 54/54/54 52/52/52
f 44/44/44 42/42/42 46/46/46 55/55/55
f 42/42/42 41/41/41 47/47/47 46/46/46
f 41/41/41 40/40/40 50/50/50 47/47/47
f 40/40/40 39/39/39 56/56/56 50/50/50
f 50/50/50 56/56/56 57/57/57 51/51/51
f 51/51/51 57/57/57 58/58/58 54/54/54
f 54/54/54 58/58/58 59/59/59 60/60/60
f 52/52/52 54/54/54 60/60/60 61/61/61
f 53/53/53 52/52/52 61/61/61 62/62/62
f 63/63/63 53/53/53 62/62/62 64/64/64
f 65/65/65 49/49/49 53/53/53 63/63/63
f 55/55/55 46/46/46 49/49/49 65/65/65
f 66/66/66 67/67/67 68/68/68 69/69/69
f 67/67/67 70/70/70 71/71/71 68/68/68
f 69/69/69 68/68/68 72/72/72 73/73/73
f 68/68/68 71/71/71 74/74/74 72/72/72
f 64/64/64 62/62/62 66/66/66 75/75/75
f 62/62/62 61/61/61 67/67/67 66/66/66
f 61/61/61 60/60/60 70/70/70 67/67/67
f 60/60/60 59/59/59 76/76/76 70/70/70
f 70/70/70 76/76/76 77/77/77 71/71/71
f 71/71/71 77/77/77 78/78/78 74/74/74
f 74/74/74 78/78/78 15/79/15 14/80/14
f 72/72/72 74/74/74 14/80/14 13/81/13
f 73/73/73 72/72/72 13/81/13 11/82/11
f 79/83/79 73/73/73 11/82/11 10/84/10
f 80/85/80 69/69/69 73/73/73 79/83/79
f 75/75/75 66/66/66 69/69/69 80/85/80
f 81/86/81 82/87/82 83/88/83 84/89/84
f 82/87/82 85/90/85 86/91/86 83/88/83
f 84/89/84 83/88/83 87/92/87 88/93/88
f 83/88/83 86/91/86 89/94/89 87/92/87
f 24/95/24 35/96/35 81/86/81 23/97/23
f 35/96/35 45/98/45 82/87/82 81/86/81
f 45/98/45 43/99/43 85/90/85 82/87/82
f 43/99/43 44/44/44 55/55/55 85/90/85
f 85/90/85 55/55/55 65/65/65 86/91/86
f 86/91/86 65/65/65 63/63/63 89/94/89
f 89/94/89 63/63/63 64/64/64 75/100/75
f 87/92/87 89/94/89 75/100/75 80/101/80
f 88/93/88 87/92/87 80/101/80 79/102/79
f 12/103/12 88/93/88 79/102/79 10/104/10
f 25/105/25 84/89/84 88/93/88 12/103/12
f 23/97/23 81/86/81 84/89/84 25/105/25
f 90/106/90 91/107/91 92/108/92 93/109/93
f 91/107/91 94/110/94 95/111/95 92/108/92
f 93/109/93 92/108/92 96/112/96 97/113/97
f 92/108/92 95/111/95 98/114/98 96/112/96
f 39/39/39 38/115/38 90/106/90 56/56/56
f 38/115/38 37/116/37 91/107/91 90/106/90
f 37/116/37 36/117/36 94/110/94 91/107/91
f 36/117/36 19/118/19 18/119/18 94/110/94
f 94/110/94 18/119/18 17/120/17 95/111/95
f 95/111/95 17/120/17 16/121/16 98/114/98
f 98/114/98 16/121/16 15/122/15 78/123/78
f 96/112/96 98/114/98 78/123/78 77/124/77
f 97/113/97 96/112/96 77/124/77 76/125/76
f 58/58/58 97/113/97 76/125/76 59/59/59
f 57/57/57 93/109/93 97/113/97 58/58/58
f 56/56/56 90/106/90 93/109/93 57/57/57
