# Blender v2.93.5 OBJ File: ''
# www.blender.org
mtllib teapot_simple.mtl
o teapot
v 1.368074 2.435437 -0.227403
v 1.338873 2.399322 -0.450414
v 1.385925 2.435437 0.000000
v 1.316296 2.435437 -0.442166
v 1.233252 2.435437 -0.641628
v 1.121601 2.435437 -0.823129
v 0.923612 2.396991 -1.077289
v 0.984007 2.435437 -0.984007
v 0.823129 2.435437 -1.121601
v 0.641628 2.435437 -1.233252
v 0.442166 2.435437 -1.316296
v 0.227403 2.435437 -1.368074
v 1.442267 2.487649 -0.176314
v 0.932614 2.534216 -1.148219
v -0.227403 2.435437 -1.368074
v -0.024012 2.393079 -1.511552
v 0.000000 2.435437 -1.385925
v -0.442166 2.435437 -1.316296
v -0.641628 2.435437 -1.233252
v -0.923612 2.396991 -1.077289
v -0.823129 2.435437 -1.121601
v -0.984007 2.435437 -0.984007
v -1.121601 2.435437 -0.823129
v -1.233252 2.435437 -0.641628
v -1.381126 2.399612 -0.342463
v -1.316296 2.435437 -0.442166
v -1.368074 2.435437 -0.227403
v -1.385925 2.435437 0.000000
v -0.176314 2.487649 -1.442266
v -1.147060 2.533801 -0.933527
v -1.368074 2.435437 0.227403
v -1.363508 2.399799 0.341775
v -1.316296 2.435437 0.442166
v -1.233252 2.435437 0.641628
v -1.077289 2.396991 0.923613
v -1.121601 2.435437 0.823129
v -0.984007 2.435437 0.984007
v -0.823129 2.435437 1.121601
v -0.641628 2.435437 1.233252
v -0.342463 2.399612 1.381126
v -0.442166 2.435437 1.316296
v -0.227403 2.435437 1.368074
v 0.000000 2.435437 1.385925
v -1.442057 2.487738 0.175261
v -0.932614 2.534216 1.148220
v 0.227403 2.435437 1.368074
v 0.341774 2.399799 1.363509
v 0.442166 2.435437 1.316296
v 0.641628 2.435437 1.233252
v 0.923612 2.396991 1.077289
v 0.823129 2.435437 1.121601
v 0.984007 2.435437 0.984007
v 1.121601 2.435437 0.823129
v 1.233252 2.435437 0.641628
v 1.381126 2.399612 0.342464
v 1.316296 2.435437 0.442166
v 1.368074 2.435437 0.227403
v 0.176314 2.487648 1.442267
v 1.148220 2.534216 0.932614
v 1.460642 1.540505 -1.252080
v 0.156673 1.551008 -1.884106
v 2.032315 0.732471 -0.348249
v 0.897576 0.763198 -1.866354
v -1.252081 1.540505 -1.460642
v -0.368524 0.735952 -2.028946
v -1.883898 0.816179 -0.871307
v -1.460642 1.540504 1.252081
v -0.156673 1.551008 1.884106
v -2.056561 1.064914 0.211928
v -0.897576 0.763198 1.866354
v 1.252081 1.540504 1.460642
v 1.884106 1.551008 0.156674
v 0.368524 0.735951 2.028946
v 1.865635 0.770153 0.897396
v 1.563866 0.622135 -1.245530
v 0.609504 0.073120 -1.345494
v 1.460157 0.052011 -0.205062
v -1.245530 0.622135 -1.563866
v -0.972376 0.041794 -1.124752
v -1.563866 0.622135 1.245530
v -0.609635 0.075206 1.347982
v 1.245530 0.622134 1.563866
v 1.047071 0.055604 1.109342
v -1.597023 2.085073 -0.022495
v -1.518814 2.211220 -0.203145
v -2.919781 2.061770 -0.229393
v -2.733693 1.936410 -0.137115
v -1.510046 2.236086 0.187737
v -2.829665 2.008880 0.205574
v -2.442574 0.914108 -0.194126
v -2.421839 1.096748 -0.211541
v -2.021850 0.828854 0.027148
v -1.916764 0.602376 -0.035892
v -2.918474 1.381306 0.139057
v -2.512682 1.125097 0.231133
v -1.993560 0.865273 0.145321
v 1.700027 1.448014 -0.186485
v 1.702767 0.734091 -0.453672
v 2.434753 0.925430 -0.261776
v 2.415459 1.448261 -0.414670
v 3.161300 2.372928 -0.027466
v 2.404805 0.986560 0.354509
v 1.696805 0.642837 0.282115
v 2.318609 1.447710 0.397788
v 1.699677 1.202758 0.477264
v 2.708988 2.434577 -0.054342
v 3.014452 2.454442 0.156565
v 0.288710 3.087009 -0.289903
v 0.132969 2.719194 -0.127456
v -0.269554 3.074326 -0.307561
v -0.352508 3.069205 0.226799
v 0.229188 3.073941 0.314385
v 0.015965 2.735334 0.150297
v 0.405045 2.536685 -0.965077
v 1.314736 2.419260 -0.274188
v -0.148884 2.676933 -0.151232
v -0.801834 2.435539 1.083143
v 0.767557 2.516459 0.912244
v -1.397628 0.057815 0.335497
vn 0.0468 0.8014 0.5962
vn 0.6406 0.7522 -0.1544
vn 0.5215 0.0965 0.8478
vn 0.5576 0.6795 0.4769
vn 0.4771 0.6791 -0.5578
vn -0.6618 0.6295 -0.4071
vn 0.8933 -0.3945 0.2154
vn -0.0468 0.8014 -0.5962
vn 0.0608 0.6301 -0.7741
vn -0.1536 0.7552 -0.6372
vn 0.8479 0.0944 -0.5216
vn -0.4771 0.6791 0.5578
vn -0.5578 0.6791 -0.4771
vn -0.4071 0.6295 0.6618
vn 0.1536 0.7552 0.6372
vn -0.8928 -0.3957 -0.2152
vn -0.5962 0.8014 0.0468
vn -0.7350 -0.3239 -0.5956
vn 0.7756 0.6283 0.0609
vn -0.5216 0.0944 -0.8479
vn 0.6623 0.6287 0.4074
vn -0.2152 -0.3957 0.8928
vn -0.0608 0.6301 0.7741
vn 0.2152 -0.3957 -0.8928
vn 0.4071 0.6295 -0.6618
vn -0.8479 0.0944 0.5216
vn -0.6372 0.7552 0.1536
vn 0.5985 0.7998 -0.0470
vn -0.3106 0.8917 0.3293
vn -0.8663 0.3824 0.3214
vn -0.4529 0.3273 0.8293
vn -0.2772 0.3323 -0.9015
vn -0.2066 0.4765 0.8545
vn 0.2772 0.3323 0.9015
vn 0.4529 0.3273 -0.8293
vn 0.8285 0.3279 0.4540
vn 0.9027 0.3305 -0.2755
vn -0.9881 -0.0268 -0.1513
vn 0.2066 0.4765 -0.8545
vn -0.8187 0.3343 -0.4669
vn 0.8545 0.4765 0.2066
vn -0.8970 0.3817 -0.2228
vn 0.4908 -0.7838 -0.3806
vn -0.4886 -0.7787 0.3936
vn 0.1194 0.9505 0.2867
vn 0.0581 0.9688 0.2411
vn -0.3096 0.9506 0.0243
vn -0.0004 1.0000 0.0002
vn 0.1029 -0.9669 0.2333
vn -0.9699 0.1145 0.2149
vn -0.1110 0.9915 0.0683
vn -0.0713 0.9940 -0.0834
vn 0.2217 -0.1175 -0.9680
vn 0.6627 0.4698 -0.5832
vn 0.9263 0.3371 0.1685
vn -0.1208 -0.0806 -0.9894
vn 0.2795 -0.9531 -0.1159
vn -0.5515 -0.7799 0.2960
vn -0.9405 0.3208 -0.1119
vn 0.3549 -0.0214 0.9346
vn -0.0003 1.0000 0.0001
vn -0.3577 0.9299 0.0862
vn -0.2198 0.9713 0.0915
vn 0.9243 -0.3728 0.0819
vn -0.2864 0.3349 -0.8977
vn 0.6321 -0.1959 -0.7497
vn -0.0592 0.9881 -0.1421
vn 0.1906 0.9315 0.3099
vn -0.1660 -0.5921 0.7886
vn -0.0677 0.9916 -0.1101
vn -0.0432 0.9829 -0.1792
vn -0.0006 1.0000 0.0004
vn -0.1360 -0.3614 0.9224
vn -0.7741 0.6301 -0.0608
vn -0.0112 0.9997 0.0205
vn -0.9288 -0.3400 -0.1474
vn 0.6120 -0.4160 0.6726
vn 0.1403 0.9900 -0.0164
vn -0.1230 0.9606 -0.2493
vn 0.7975 -0.4813 0.3639
vn -0.3403 0.9403 0.0039
vn 0.0000 -0.9999 0.0110
vn 0.0156 -0.9994 -0.0301
vn -0.0016 -1.0000 0.0022
vn -0.2599 -0.0653 0.9634
vn -0.0084 -0.9997 0.0237
vn 0.8234 -0.5316 -0.1985
vn 0.5019 -0.6354 0.5868
vn -0.7096 -0.3578 -0.6069
vn 0.3295 -0.5151 -0.7913
vn 0.6517 -0.7420 0.1571
vn 0.0667 -0.5236 -0.8494
vn -0.4394 -0.6506 0.6194
vn -0.8109 -0.5516 0.1955
vn -0.7688 -0.5537 0.3201
vn -0.4885 -0.3615 -0.7941
vn -0.5019 -0.6354 -0.5868
vn 0.6069 -0.3578 -0.7096
vn -0.6517 -0.7420 -0.1571
vn -0.0254 -0.9458 0.3238
vn 0.0247 -0.9487 0.3152
vn -0.7096 -0.3578 0.6069
vn -0.5019 -0.6354 0.5868
vn -0.7913 -0.5151 -0.3294
vn -0.1091 -0.8851 0.4524
vn 0.0982 -0.9080 0.4073
vn 0.7941 -0.3615 -0.4885
vn 0.7096 -0.3578 0.6069
vn -0.4885 -0.3615 0.7941
vn 0.7913 -0.5151 0.3294
vn -0.1985 -0.5316 -0.8234
vn 0.8494 -0.5236 0.0667
vn -0.7941 0.4631 0.3937
vn -0.3941 0.4630 -0.7939
vn 0.8589 0.3417 0.3816
vn -0.8820 0.0958 0.4615
vn 0.7222 0.0722 0.6880
vn -0.6881 0.0722 0.7221
vn -0.1248 0.0951 0.9876
vn 0.3941 0.4630 0.7939
vn 0.7939 0.4630 -0.3941
vn 0.2661 0.3323 0.9049
vn 0.9867 0.0991 0.1290
vn 0.8776 0.0953 -0.4699
vn -0.8494 -0.5236 -0.0667
vn -0.2661 0.3323 -0.9049
vn -0.3828 0.3406 0.8587
vn 0.4885 -0.3615 0.7941
vn 0.3828 0.3406 -0.8587
vn 0.4760 0.0949 0.8743
vn 0.5868 -0.6354 -0.5019
vn -0.8975 0.3767 -0.2295
vn 0.9043 0.3305 -0.2703
vn -0.4760 0.0949 -0.8743
vn -0.7232 0.0720 -0.6868
vn -0.8952 -0.3487 0.2773
vn -0.1124 -0.6275 0.7704
vn 0.6468 -0.6021 0.4681
vn 0.4393 -0.6508 -0.6193
vn 0.1124 -0.6281 -0.7700
vn -0.5516 -0.7093 0.4389
vn -0.6518 -0.6282 -0.4248
vn -0.0738 -0.7666 -0.6378
vn 0.0818 -0.7714 0.6311
vn -0.1048 0.9926 -0.0608
vn 0.1504 -0.8314 0.5350
vn -0.0000 1.0000 0.0004
vn -0.0002 1.0000 0.0007
vn 0.1631 0.9680 -0.1906
vn -0.0011 1.0000 0.0009
vn 0.1466 -0.4360 -0.8879
vn 0.0382 -0.4172 -0.9080
vn 0.1248 0.0951 -0.9876
vn 0.0991 0.3153 -0.9438
vn 0.1447 0.9611 -0.2352
vn 0.6881 0.0722 -0.7221
vn 0.1571 -0.7420 -0.6517
vn 0.1101 0.9581 -0.2645
vn -0.1719 0.9850 -0.0135
vn 0.0651 0.9606 -0.2700
vn -0.5571 -0.7768 0.2936
vn 0.4250 -0.8985 0.1098
vn -0.1913 0.9804 -0.0461
vn 0.3073 -0.2566 -0.9164
vn -0.1657 0.9743 0.1528
vn -0.0001 1.0000 0.0007
vn 0.0993 -0.8355 -0.5405
vn -0.5089 0.5167 0.6884
vn -0.0016 1.0000 0.0018
vn -0.1837 0.9800 -0.0765
vn -0.1934 0.9810 -0.0152
vn 0.2580 0.9530 0.1587
vn -0.0717 0.9955 -0.0613
vn -0.0012 1.0000 0.0020
vn 0.2723 0.9336 0.2329
vn -0.0005 1.0000 0.0012
vn -0.0171 0.9757 -0.2183
vn 0.0198 0.9676 -0.2518
vn 0.2227 0.9705 0.0927
vn 0.2491 0.9236 0.2913
vn 0.8286 -0.5555 0.0696
vn 0.8705 0.2718 -0.4104
vn 0.1283 -0.3291 -0.9355
vn 0.9257 0.3270 0.1901
vn -0.0229 0.9997 0.0060
vn 0.8971 -0.2076 0.3900
vn 0.3286 0.9430 -0.0533
vn -0.0175 0.9563 0.2920
vn 0.5714 0.2806 -0.7712
vn 0.1463 0.9424 -0.3007
vn -0.6346 0.6659 -0.3923
vn 0.6346 0.6659 0.3923
vn -0.9188 -0.3019 -0.2541
vn 0.8499 -0.3227 -0.4167
vn -0.0377 0.2473 -0.9682
vn 0.3923 0.6659 -0.6346
vn -0.8676 0.4947 0.0510
vn -0.4179 -0.3181 -0.8510
vn -0.3694 0.4453 0.8156
vn -0.7257 0.5009 0.4716
vn -0.8510 -0.3181 0.4179
vn -0.2541 -0.3019 0.9188
vn -0.6269 0.5652 0.5362
vn 0.6269 0.5652 -0.5362
vn 0.4110 0.2689 0.8711
vn 0.7027 -0.6512 -0.2868
vn 0.2541 -0.3019 -0.9188
vn 0.4180 -0.3173 0.8513
vn 0.9168 -0.3082 0.2541
vn 0.5356 0.5665 0.6263
vn 0.9682 0.2473 -0.0377
vn -0.2834 -0.6599 -0.6959
vn 0.7192 -0.6728 0.1737
vn 0.2841 -0.6586 0.6968
vn -0.6976 -0.6988 -0.1581
vn -0.7992 -0.5652 0.2045
vn -0.4104 0.2718 -0.8705
vn -0.1005 0.9737 -0.2044
vn 0.5029 0.8632 -0.0436
vn 0.1082 0.9939 -0.0227
vn -0.0324 0.9926 0.1173
vn 0.1020 -0.2183 0.9705
vn -0.1666 0.9819 0.0898
vn 0.1488 0.9878 -0.0468
vn -0.5362 0.5652 -0.6269
usemtl Default_OBJ
s off
f 17//1 29//1 15//1
f 31//2 44//2 33//2
f 19//3 30//3 21//3
f 30//4 23//4 22//4
f 45//5 38//5 37//5
f 59//6 54//6 53//6
f 44//7 27//7 26//7
f 43//8 58//8 46//8
f 58//9 43//9 42//9
f 46//10 58//10 48//10
f 34//11 45//11 36//11
f 14//12 9//12 8//12
f 59//13 53//13 52//13
f 14//14 10//14 9//14
f 15//15 29//15 18//15
f 13//16 57//16 56//16
f 3//17 13//17 1//17
f 90//18 94//18 86//18
f 44//19 28//19 27//19
f 49//20 59//20 51//20
f 30//21 24//21 23//21
f 29//22 12//22 11//22
f 29//23 17//23 12//23
f 58//24 42//24 41//24
f 45//25 39//25 38//25
f 5//26 14//26 6//26
f 1//27 13//27 4//27
f 28//28 44//28 31//28
f 104//29 97//29 105//29
f 69//30 67//30 44//30
f 67//31 70//31 45//31
f 65//32 64//32 29//32
f 45//33 68//33 58//33
f 73//34 71//34 58//34
f 60//35 63//35 14//35
f 71//36 74//36 59//36
f 62//37 60//37 13//37
f 66//38 92//38 69//38
f 14//39 61//39 29//39
f 64//40 66//40 30//40
f 59//41 72//41 13//41
f 30//42 69//42 44//42
f 77//43 76//43 75//43
f 119//44 81//44 80//44
f 118//45 48//45 49//45
f 118//46 46//46 48//46
f 115//47 3//47 1//47
f 117//48 33//48 34//48
f 89//49 87//49 84//49
f 86//50 94//50 89//50
f 115//51 5//51 6//51
f 114//52 21//52 22//52
f 93//53 90//53 91//53
f 91//54 92//54 93//54
f 95//55 91//55 89//55
f 91//56 90//56 86//56
f 98//57 99//57 103//57
f 90//58 93//58 95//58
f 106//59 100//59 104//59
f 107//60 104//60 102//60
f 117//61 31//61 33//61
f 115//62 1//62 4//62
f 115//63 4//63 5//63
f 99//64 107//64 102//64
f 97//65 100//65 98//65
f 100//66 101//66 99//66
f 114//67 18//67 19//67
f 118//68 49//68 51//68
f 96//69 95//69 93//69
f 114//70 19//70 21//70
f 114//71 15//71 18//71
f 117//72 34//72 36//72
f 113//73 112//73 111//73
f 13//74 3//74 57//74
f 108//75 111//75 112//75
f 116//76 111//76 110//76
f 101//77 107//77 99//77
f 115//78 114//78 118//78
f 114//79 116//79 109//79
f 114//80 109//80 113//80
f 117//81 113//81 116//81
f 119//82 79//82 77//82
f 76//83 77//83 79//83
f 77//84 83//84 119//84
f 94//85 95//85 89//85
f 81//86 119//86 83//86
f 32//87 31//87 33//87
f 20//88 21//88 22//88
f 52//89 53//89 50//89
f 39//90 41//90 40//90
f 26//91 27//91 25//91
f 42//92 43//92 40//92
f 80//93 81//93 70//93
f 2//94 1//94 4//94
f 2//95 4//95 5//95
f 50//96 49//96 51//96
f 50//97 51//97 52//97
f 37//98 38//98 35//98
f 56//99 57//99 55//99
f 12//100 17//100 16//100
f 16//101 17//101 15//101
f 7//102 6//102 8//102
f 8//103 9//103 7//103
f 54//104 56//104 55//104
f 11//105 12//105 16//105
f 16//106 15//106 18//106
f 35//107 34//107 36//107
f 22//108 23//108 20//108
f 9//109 10//109 7//109
f 24//110 26//110 25//110
f 47//111 46//111 48//111
f 27//112 28//112 25//112
f 44//113 67//113 45//113
f 29//114 64//114 30//114
f 59//115 74//115 72//115
f 69//116 80//116 67//116
f 71//117 82//117 74//117
f 67//118 80//118 70//118
f 68//119 70//119 73//119
f 58//120 71//120 59//120
f 13//121 60//121 14//121
f 68//122 73//122 58//122
f 72//123 74//123 62//123
f 62//124 75//124 60//124
f 57//125 3//125 55//125
f 61//126 65//126 29//126
f 45//127 70//127 68//127
f 20//128 19//128 21//128
f 14//129 63//129 61//129
f 73//130 82//130 71//130
f 35//131 36//131 37//131
f 30//132 66//132 69//132
f 72//133 62//133 13//133
f 65//134 78//134 64//134
f 64//135 78//135 66//135
f 69//136 92//136 80//136
f 70//137 81//137 73//137
f 82//138 83//138 74//138
f 75//139 76//139 63//139
f 63//140 76//140 65//140
f 111//141 116//141 113//141
f 78//142 79//142 66//142
f 65//143 76//143 79//143
f 73//144 81//144 83//144
f 85//145 86//145 88//145
f 88//146 89//146 84//146
f 117//147 42//147 43//147
f 117//148 41//148 42//148
f 114//149 8//149 9//149
f 37//150 117//150 36//150
f 87//151 86//151 84//151
f 108//152 109//152 110//152
f 61//153 63//153 65//153
f 100//154 106//154 101//154
f 114//155 9//155 10//155
f 60//156 75//156 63//156
f 41//157 42//157 40//157
f 114//158 10//158 11//158
f 115//159 57//159 3//159
f 114//160 11//160 12//160
f 94//161 90//161 95//161
f 99//162 102//162 103//162
f 116//163 26//163 27//163
f 98//164 100//164 99//164
f 88//165 86//165 89//165
f 97//166 104//166 100//166
f 84//167 86//167 85//167
f 107//168 106//168 104//168
f 117//169 37//169 38//169
f 116//170 24//170 26//170
f 116//171 27//171 28//171
f 118//172 53//172 54//172
f 114//173 22//173 23//173
f 117//174 38//174 39//174
f 118//175 52//175 53//175
f 117//176 39//176 41//176
f 15//177 114//177 17//177
f 114//178 12//178 17//178
f 118//179 54//179 56//179
f 52//180 118//180 51//180
f 112//181 113//181 108//181
f 32//182 33//182 34//182 35//182
f 110//183 109//183 116//183
f 89//184 91//184 87//184
f 108//185 110//185 111//185
f 108//186 113//186 109//186
f 118//187 114//187 113//187
f 113//188 117//188 118//188
f 91//189 86//189 87//189
f 101//190 106//190 107//190
f 54//191 55//191 50//191 53//191
f 24//192 25//192 20//192 23//192
f 59//193 13//193 56//193 54//193
f 33//194 44//194 45//194 34//194
f 43//195 46//195 47//195 40//195
f 39//196 40//196 35//196 38//196
f 3//197 1//197 2//197 55//197
f 48//198 58//198 59//198 49//198
f 10//199 11//199 16//199 7//199
f 2//200 5//200 6//200 7//200
f 4//201 13//201 14//201 5//201
f 14//202 29//202 11//202 10//202
f 8//203 6//203 14//203
f 37//204 36//204 45//204
f 16//205 18//205 19//205 20//205
f 77//206 75//206 62//206
f 45//207 58//207 41//207 39//207
f 18//208 29//208 30//208 19//208
f 30//209 44//209 26//209 24//209
f 22//210 21//210 30//210
f 28//211 31//211 32//211 25//211
f 79//212 78//212 65//212
f 83//213 77//213 62//213 74//213
f 83//214 82//214 73//214
f 79//215 119//215 92//215 66//215
f 119//216 80//216 92//216
f 47//217 48//217 49//217 50//217
f 23//218 24//218 116//218 114//218
f 96//219 92//219 91//219 95//219
f 118//220 56//220 57//220 115//220
f 118//221 117//221 43//221 46//221
f 102//222 104//222 105//222 103//222
f 117//223 116//223 28//223 31//223
f 114//224 115//224 6//224 8//224
f 52//225 51//225 59//225
